<svg xmlns="http://www.w3.org/2000/svg" width="182" height="113" viewBox="0 0 182 113">
  <rect width="182" height="113" fill="#1a1a1a"/>
  <g transform="translate(2,2)">
    <!-- #dda910 -->
    <path d="M 64,64 L 66,64 L 66,65 L 67,65 L 67,66 L 72,66 L 72,68 L 78,68 L 78,72 L 75,72 L 75,74 L 73,74 L 73,75 L 74,75 L 74,76 L 73,76 L 73,77 L 72,77 L 72,79 L 71,79 L 71,80 L 68,80 L 68,81 L 66,81 L 66,82 L 65,82 L 65,83 L 63,83 L 63,85 L 62,85 L 62,86 L 60,86 L 60,87 L 59,87 L 59,88 L 55,88 L 55,89 L 57,89 L 57,91 L 56,91 L 56,93 L 55,93 L 55,92 L 54,92 L 54,93 L 48,93 L 48,94 L 50,94 L 50,95 L 49,95 L 49,96 L 41,96 L 41,97 L 38,97 L 38,96 L 36,96 L 36,95 L 34,95 L 34,94 L 32,94 L 32,93 L 31,93 L 31,89 L 32,89 L 32,86 L 33,86 L 33,84 L 34,84 L 34,82 L 35,82 L 35,83 L 37,83 L 37,86 L 39,86 L 39,85 L 40,85 L 40,77 L 43,77 L 43,76 L 44,76 L 44,75 L 47,75 L 47,74 L 48,74 L 48,73 L 50,73 L 50,72 L 54,72 L 54,71 L 57,71 L 57,70 L 58,70 L 58,68 L 60,68 L 60,66 L 63,66 L 63,65 L 64,65 Z" fill="#dda910"/>
    <path d="M 79,72 L 82,72 L 82,74 L 85,74 L 85,76 L 84,76 L 84,75 L 83,75 L 83,76 L 82,76 L 82,80 L 81,80 L 81,78 L 80,78 L 80,77 L 79,77 L 79,76 L 80,76 L 80,75 L 78,75 L 78,76 L 77,76 L 77,74 L 79,74 L 79,73 Z" fill="#dda910"/>
    <path d="M 77,79 L 79,79 L 79,82 L 78,82 L 78,81 L 77,81 L 77,80 Z" fill="#dda910"/>
    <path d="M 69,82 L 73,82 L 73,83 L 70,83 L 70,85 L 69,85 L 69,86 L 68,86 L 68,87 L 70,87 L 70,88 L 73,88 L 73,87 L 74,87 L 74,88 L 75,88 L 75,89 L 76,89 L 76,90 L 78,90 L 78,92 L 79,92 L 79,91 L 80,91 L 80,89 L 82,89 L 82,90 L 83,90 L 83,91 L 85,91 L 85,96 L 84,96 L 84,97 L 82,97 L 82,98 L 81,98 L 81,96 L 82,96 L 82,93 L 80,93 L 80,94 L 77,94 L 77,92 L 76,92 L 76,91 L 75,91 L 75,92 L 72,92 L 72,93 L 70,93 L 70,92 L 67,92 L 67,89 L 65,89 L 65,88 L 64,88 L 64,86 L 66,86 L 66,84 L 67,84 L 67,83 L 69,83 Z" fill="#dda910"/>
    <path d="M 84,82 L 85,82 L 85,83 L 87,83 L 87,85 L 88,85 L 88,87 L 86,87 L 86,86 L 81,86 L 81,84 L 82,84 L 82,83 L 84,83 Z" fill="#dda910"/>
    <path d="M 77,86 L 79,86 L 79,88 L 77,88 L 77,87 Z" fill="#dda910"/>
    <path d="M 60,91 L 63,91 L 63,92 L 65,92 L 65,93 L 66,93 L 66,96 L 68,96 L 68,94 L 69,94 L 69,96 L 70,96 L 70,95 L 73,95 L 73,96 L 75,96 L 75,99 L 74,99 L 74,100 L 73,100 L 73,102 L 70,102 L 70,103 L 69,103 L 69,105 L 63,105 L 63,104 L 62,104 L 62,103 L 61,103 L 61,102 L 60,102 L 60,100 L 59,100 L 59,99 L 58,99 L 58,98 L 56,98 L 56,97 L 55,97 L 55,96 L 60,96 L 60,97 L 61,97 L 61,98 L 63,98 L 63,97 L 62,97 L 62,93 L 59,93 L 59,94 L 58,94 L 58,92 L 60,92 Z" fill="#dda910"/>
    <path d="M 75,100 L 77,100 L 77,102 L 76,102 L 76,103 L 75,103 L 75,101 Z" fill="#dda910"/>
    <path d="M 72,106 L 75,106 L 75,108 L 73,108 L 73,109 L 70,109 L 70,108 L 72,108 L 72,107 Z" fill="#dda910"/>
    <!-- #540601 -->
    <path d="M 67,23 L 68,23 L 68,26 L 67,26 L 67,28 L 68,28 L 68,27 L 69,27 L 69,26 L 71,26 L 71,28 L 70,28 L 70,29 L 69,29 L 69,31 L 70,31 L 70,34 L 71,34 L 71,36 L 70,36 L 70,35 L 69,35 L 69,34 L 66,34 L 66,38 L 75,38 L 75,37 L 74,37 L 74,33 L 77,33 L 77,34 L 78,34 L 78,35 L 79,35 L 79,37 L 78,37 L 78,39 L 79,39 L 79,43 L 80,43 L 80,46 L 81,46 L 81,48 L 82,48 L 82,49 L 83,49 L 83,52 L 84,52 L 84,53 L 85,53 L 85,54 L 87,54 L 87,55 L 88,55 L 88,56 L 89,56 L 89,57 L 91,57 L 91,58 L 90,58 L 90,61 L 87,61 L 87,60 L 86,60 L 86,63 L 87,63 L 87,64 L 84,64 L 84,65 L 91,65 L 91,66 L 92,66 L 92,65 L 93,65 L 93,68 L 90,68 L 90,69 L 88,69 L 88,70 L 82,70 L 82,71 L 81,71 L 81,70 L 79,70 L 79,71 L 78,71 L 78,68 L 72,68 L 72,66 L 68,66 L 68,64 L 70,64 L 70,54 L 69,54 L 69,53 L 70,53 L 70,49 L 68,49 L 68,47 L 66,47 L 66,46 L 64,46 L 64,45 L 63,45 L 63,44 L 62,44 L 62,43 L 63,43 L 63,42 L 61,42 L 61,41 L 59,41 L 59,40 L 58,40 L 58,39 L 57,39 L 57,37 L 56,37 L 56,31 L 62,31 L 62,27 L 60,27 L 60,25 L 66,25 L 66,24 L 67,24 Z" fill="#540601"/>
    <path d="M 91,59 L 93,59 L 93,60 L 91,60 Z" fill="#540601"/>
    <!-- #a82db1 -->
    <path d="M 11,55 L 25,55 L 25,56 L 23,56 L 23,57 L 24,57 L 24,58 L 25,58 L 25,59 L 26,59 L 26,60 L 28,60 L 28,61 L 29,61 L 29,62 L 31,62 L 31,64 L 33,64 L 33,66 L 38,66 L 38,68 L 44,68 L 44,71 L 47,71 L 47,72 L 48,72 L 48,74 L 47,74 L 47,75 L 44,75 L 44,76 L 43,76 L 43,77 L 40,77 L 40,85 L 39,85 L 39,86 L 37,86 L 37,83 L 35,83 L 35,82 L 34,82 L 34,84 L 33,84 L 33,80 L 34,80 L 34,81 L 35,81 L 35,79 L 33,79 L 33,77 L 31,77 L 31,76 L 28,76 L 28,78 L 30,78 L 30,79 L 31,79 L 31,86 L 30,86 L 30,85 L 29,85 L 29,84 L 28,84 L 28,86 L 29,86 L 29,87 L 27,87 L 27,86 L 26,86 L 26,85 L 25,85 L 25,86 L 23,86 L 23,84 L 22,84 L 22,86 L 21,86 L 21,85 L 19,85 L 19,84 L 20,84 L 20,83 L 21,83 L 21,77 L 20,77 L 20,71 L 21,71 L 21,69 L 22,69 L 22,68 L 25,68 L 25,64 L 24,64 L 24,65 L 23,65 L 23,67 L 16,67 L 16,68 L 20,68 L 20,69 L 19,69 L 19,71 L 18,71 L 18,77 L 19,77 L 19,82 L 18,82 L 18,81 L 17,81 L 17,80 L 16,80 L 16,79 L 15,79 L 15,78 L 14,78 L 14,75 L 13,75 L 13,77 L 12,77 L 12,78 L 13,78 L 13,80 L 14,80 L 14,81 L 15,81 L 15,82 L 16,82 L 16,83 L 15,83 L 15,84 L 16,84 L 16,86 L 14,86 L 14,85 L 13,85 L 13,84 L 9,84 L 9,85 L 8,85 L 8,86 L 7,86 L 7,84 L 6,84 L 6,78 L 5,78 L 5,75 L 4,75 L 4,67 L 5,67 L 5,57 L 11,57 L 11,56 Z" fill="#a82db1"/>
    <!-- #541583 -->
    <path d="M 40,29 L 45,29 L 45,30 L 46,30 L 46,31 L 48,31 L 48,32 L 49,32 L 49,31 L 53,31 L 53,32 L 55,32 L 55,31 L 56,31 L 56,37 L 57,37 L 57,39 L 58,39 L 58,40 L 59,40 L 59,41 L 61,41 L 61,42 L 63,42 L 63,43 L 62,43 L 62,44 L 63,44 L 63,45 L 64,45 L 64,46 L 66,46 L 66,47 L 68,47 L 68,49 L 70,49 L 70,53 L 69,53 L 69,54 L 70,54 L 70,64 L 68,64 L 68,66 L 67,66 L 67,65 L 66,65 L 66,64 L 64,64 L 64,65 L 63,65 L 63,66 L 60,66 L 60,68 L 58,68 L 58,70 L 57,70 L 57,71 L 54,71 L 54,72 L 50,72 L 50,73 L 48,73 L 48,72 L 47,72 L 47,71 L 44,71 L 44,68 L 38,68 L 38,66 L 33,66 L 33,64 L 31,64 L 31,62 L 29,62 L 29,61 L 28,61 L 28,60 L 26,60 L 26,59 L 25,59 L 25,58 L 24,58 L 24,57 L 23,57 L 23,56 L 25,56 L 25,53 L 26,53 L 26,52 L 27,52 L 27,50 L 28,50 L 28,48 L 27,48 L 27,42 L 29,42 L 29,32 L 31,32 L 31,31 L 40,31 L 40,30 Z" fill="#541583"/>
    <!-- #001e05 -->
    <path d="M 126,17 L 129,17 L 129,18 L 130,18 L 130,19 L 131,19 L 131,20 L 132,20 L 132,21 L 135,21 L 135,19 L 136,19 L 136,20 L 137,20 L 137,19 L 138,19 L 138,22 L 139,22 L 139,23 L 141,23 L 141,25 L 142,25 L 142,26 L 144,26 L 144,27 L 145,27 L 145,29 L 144,29 L 144,30 L 143,30 L 143,31 L 144,31 L 144,34 L 140,34 L 140,35 L 136,35 L 136,36 L 134,36 L 134,39 L 135,39 L 135,40 L 138,40 L 138,41 L 142,41 L 142,39 L 143,39 L 143,38 L 142,38 L 142,37 L 143,37 L 143,35 L 144,35 L 144,36 L 145,36 L 145,33 L 146,33 L 146,36 L 147,36 L 147,38 L 146,38 L 146,42 L 144,42 L 144,43 L 143,43 L 143,44 L 142,44 L 142,48 L 138,48 L 138,47 L 137,47 L 137,45 L 134,45 L 134,44 L 133,44 L 133,42 L 132,42 L 132,41 L 130,41 L 130,42 L 131,42 L 131,43 L 130,43 L 130,44 L 129,44 L 129,42 L 125,42 L 125,41 L 121,41 L 121,40 L 120,40 L 120,38 L 119,38 L 119,36 L 118,36 L 118,35 L 115,35 L 115,36 L 113,36 L 113,37 L 112,37 L 112,36 L 111,36 L 111,31 L 110,31 L 110,30 L 109,30 L 109,28 L 111,28 L 111,29 L 112,29 L 112,28 L 114,28 L 114,27 L 115,27 L 115,26 L 118,26 L 118,27 L 122,27 L 122,30 L 124,30 L 124,28 L 125,28 L 125,27 L 126,27 L 126,28 L 127,28 L 127,27 L 128,27 L 128,26 L 127,26 L 127,25 L 125,25 L 125,24 L 124,24 L 124,23 L 123,23 L 123,22 L 121,22 L 121,23 L 119,23 L 119,20 L 121,20 L 121,19 L 122,19 L 122,18 L 126,18 Z" fill="#001e05"/>
    <path d="M 149,27 L 150,27 L 150,28 L 151,28 L 151,29 L 152,29 L 152,32 L 151,32 L 151,34 L 149,34 L 149,33 L 147,33 L 147,29 L 148,29 L 148,28 L 149,28 Z" fill="#001e05"/>
    <path d="M 162,37 L 164,37 L 164,38 L 165,38 L 165,39 L 166,39 L 166,40 L 165,40 L 165,41 L 164,41 L 164,40 L 162,40 L 162,38 Z" fill="#001e05"/>
    <path d="M 154,40 L 155,40 L 155,42 L 156,42 L 156,44 L 159,44 L 159,45 L 160,45 L 160,47 L 159,47 L 159,48 L 158,48 L 158,49 L 157,49 L 157,48 L 155,48 L 155,47 L 154,47 L 154,48 L 153,48 L 153,49 L 150,49 L 150,50 L 148,50 L 148,51 L 147,51 L 147,47 L 148,47 L 148,46 L 150,46 L 150,45 L 153,45 L 153,42 L 154,42 L 154,41 Z" fill="#001e05"/>
    <path d="M 174,51 L 177,51 L 177,52 L 178,52 L 178,53 L 177,53 L 177,54 L 172,54 L 172,52 L 174,52 Z" fill="#001e05"/>
    <!-- #a83989 -->
    <path d="M 21,0 L 24,0 L 24,1 L 26,1 L 26,3 L 25,3 L 25,4 L 24,4 L 24,6 L 25,6 L 25,7 L 26,7 L 26,10 L 27,10 L 27,11 L 28,11 L 28,8 L 29,8 L 29,7 L 30,7 L 30,6 L 34,6 L 34,5 L 37,5 L 37,4 L 38,4 L 38,3 L 40,3 L 40,4 L 41,4 L 41,5 L 42,5 L 42,8 L 43,8 L 43,9 L 42,9 L 42,11 L 43,11 L 43,12 L 44,12 L 44,13 L 45,13 L 45,14 L 46,14 L 46,15 L 47,15 L 47,16 L 48,16 L 48,18 L 50,18 L 50,19 L 53,19 L 53,20 L 54,20 L 54,21 L 56,21 L 56,22 L 58,22 L 58,23 L 61,23 L 61,21 L 60,21 L 60,19 L 59,19 L 59,11 L 58,11 L 58,10 L 61,10 L 61,11 L 62,11 L 62,12 L 63,12 L 63,16 L 64,16 L 64,17 L 63,17 L 63,19 L 64,19 L 64,21 L 66,21 L 66,22 L 67,22 L 67,24 L 66,24 L 66,25 L 60,25 L 60,27 L 62,27 L 62,31 L 55,31 L 55,32 L 53,32 L 53,31 L 49,31 L 49,32 L 48,32 L 48,31 L 46,31 L 46,30 L 45,30 L 45,29 L 40,29 L 40,31 L 31,31 L 31,32 L 28,32 L 28,31 L 26,31 L 26,32 L 24,32 L 24,30 L 23,30 L 23,29 L 21,29 L 21,28 L 20,28 L 20,27 L 19,27 L 19,26 L 18,26 L 18,25 L 16,25 L 16,23 L 15,23 L 15,17 L 16,17 L 16,16 L 15,16 L 15,15 L 14,15 L 14,12 L 13,12 L 13,10 L 16,10 L 16,7 L 15,7 L 15,4 L 16,4 L 16,3 L 18,3 L 18,2 L 19,2 L 19,1 L 21,1 Z" fill="#a83989"/>
    <!-- #003c0a -->
    <path d="M 13,12 L 14,12 L 14,15 L 15,15 L 15,16 L 16,16 L 16,17 L 15,17 L 15,23 L 16,23 L 16,25 L 18,25 L 18,26 L 19,26 L 19,27 L 20,27 L 20,28 L 21,28 L 21,29 L 23,29 L 23,30 L 24,30 L 24,32 L 26,32 L 26,31 L 28,31 L 28,32 L 29,32 L 29,42 L 27,42 L 27,48 L 28,48 L 28,50 L 27,50 L 27,52 L 26,52 L 26,53 L 25,53 L 25,55 L 11,55 L 11,57 L 5,57 L 5,54 L 4,54 L 4,53 L 3,53 L 3,46 L 2,46 L 2,44 L 1,44 L 1,40 L 0,40 L 0,39 L 1,39 L 1,33 L 2,33 L 2,32 L 3,32 L 3,31 L 5,31 L 5,27 L 6,27 L 6,23 L 7,23 L 7,19 L 8,19 L 8,17 L 9,17 L 9,16 L 10,16 L 10,15 L 11,15 L 11,13 L 13,13 Z" fill="#003c0a"/>
  </g>
</svg>
